<mxfile host="app.diagrams.net" modified="2021-11-14T11:12:48.845Z" agent="5.0 (Windows NT 10.0; Win64; x64) AppleWebKit/537.36 (KHTML, like Gecko) Chrome/94.0.4606.81 Safari/537.36 OPR/80.0.4170.63" etag="C-FPOHbDBv_uWtZ3T8iE" version="15.7.0" type="github">
  <diagram id="JwIfwVG5MsaWgSSptiBm" name="Page-1">
    <mxGraphModel dx="3671" dy="1590" grid="1" gridSize="10" guides="1" tooltips="1" connect="1" arrows="1" fold="1" page="1" pageScale="1" pageWidth="827" pageHeight="1169" math="0" shadow="0">
      <root>
        <mxCell id="0" />
        <mxCell id="1" parent="0" />
        <mxCell id="emb4uLtKr96zzY6ofPnc-1" value="" style="swimlane;html=1;startSize=20;fontStyle=0;collapsible=0;horizontal=0;swimlaneLine=1;swimlaneFillColor=#ffffff;strokeWidth=2;" vertex="1" parent="1">
          <mxGeometry x="-690" y="1100" width="1950" height="180" as="geometry" />
        </mxCell>
        <mxCell id="emb4uLtKr96zzY6ofPnc-2" value="Система доставки" style="text;html=1;strokeColor=none;fillColor=none;align=center;verticalAlign=middle;whiteSpace=wrap;rounded=0;rotation=-90;" vertex="1" parent="emb4uLtKr96zzY6ofPnc-1">
          <mxGeometry x="-57.5" y="72.5" width="130" height="35" as="geometry" />
        </mxCell>
        <mxCell id="emb4uLtKr96zzY6ofPnc-3" value="Рассчитать возможные варианты времени доставки" style="rounded=1;whiteSpace=wrap;html=1;fillColor=#d5e8d4;strokeColor=#82b366;" vertex="1" parent="emb4uLtKr96zzY6ofPnc-1">
          <mxGeometry x="945" y="50" width="120" height="60" as="geometry" />
        </mxCell>
        <mxCell id="emb4uLtKr96zzY6ofPnc-4" value="Варианты рассчитаны" style="rounded=1;whiteSpace=wrap;html=1;fillColor=#f8cecc;strokeColor=#b85450;" vertex="1" parent="emb4uLtKr96zzY6ofPnc-1">
          <mxGeometry x="1135" y="50" width="120" height="60" as="geometry" />
        </mxCell>
        <mxCell id="emb4uLtKr96zzY6ofPnc-5" value="Опубликовать дату и время по ИД заказа" style="rounded=1;whiteSpace=wrap;html=1;fillColor=#d5e8d4;strokeColor=#82b366;" vertex="1" parent="emb4uLtKr96zzY6ofPnc-1">
          <mxGeometry x="1315" y="50" width="120" height="60" as="geometry" />
        </mxCell>
        <mxCell id="emb4uLtKr96zzY6ofPnc-6" style="edgeStyle=orthogonalEdgeStyle;rounded=0;orthogonalLoop=1;jettySize=auto;html=1;exitX=1;exitY=0.5;exitDx=0;exitDy=0;" edge="1" parent="emb4uLtKr96zzY6ofPnc-1" source="emb4uLtKr96zzY6ofPnc-3" target="emb4uLtKr96zzY6ofPnc-4">
          <mxGeometry relative="1" as="geometry" />
        </mxCell>
        <mxCell id="emb4uLtKr96zzY6ofPnc-7" style="edgeStyle=orthogonalEdgeStyle;rounded=0;orthogonalLoop=1;jettySize=auto;html=1;exitX=1;exitY=0.5;exitDx=0;exitDy=0;entryX=0;entryY=0.5;entryDx=0;entryDy=0;" edge="1" parent="emb4uLtKr96zzY6ofPnc-1" source="emb4uLtKr96zzY6ofPnc-4" target="emb4uLtKr96zzY6ofPnc-5">
          <mxGeometry relative="1" as="geometry" />
        </mxCell>
        <mxCell id="emb4uLtKr96zzY6ofPnc-8" value="" style="swimlane;html=1;startSize=20;fontStyle=0;collapsible=0;horizontal=0;swimlaneLine=1;swimlaneFillColor=#ffffff;strokeWidth=2;" vertex="1" parent="1">
          <mxGeometry x="-690" y="920" width="1950" height="180" as="geometry" />
        </mxCell>
        <mxCell id="emb4uLtKr96zzY6ofPnc-9" value="Заказ" style="text;html=1;strokeColor=none;fillColor=none;align=center;verticalAlign=middle;whiteSpace=wrap;rounded=0;rotation=-90;" vertex="1" parent="emb4uLtKr96zzY6ofPnc-8">
          <mxGeometry x="-76.87" y="76.88" width="172.5" height="28.75" as="geometry" />
        </mxCell>
        <mxCell id="emb4uLtKr96zzY6ofPnc-10" value="Получен запрос на создание нового заказа на сайте" style="rounded=1;whiteSpace=wrap;html=1;fillColor=#f8cecc;strokeColor=#b85450;" vertex="1" parent="emb4uLtKr96zzY6ofPnc-8">
          <mxGeometry x="110" y="45.63" width="120" height="60" as="geometry" />
        </mxCell>
        <mxCell id="emb4uLtKr96zzY6ofPnc-11" value="Получить данные клиента" style="rounded=1;whiteSpace=wrap;html=1;fillColor=#d5e8d4;strokeColor=#82b366;" vertex="1" parent="emb4uLtKr96zzY6ofPnc-8">
          <mxGeometry x="280" y="45.63" width="120" height="60" as="geometry" />
        </mxCell>
        <mxCell id="emb4uLtKr96zzY6ofPnc-12" value="Данные клиента получвены из модулья &quot;Клиенты&quot;" style="rounded=1;whiteSpace=wrap;html=1;fillColor=#f8cecc;strokeColor=#b85450;" vertex="1" parent="emb4uLtKr96zzY6ofPnc-8">
          <mxGeometry x="450" y="45.63" width="120" height="60" as="geometry" />
        </mxCell>
        <mxCell id="emb4uLtKr96zzY6ofPnc-13" value="Опубликовать данные для создания нового заказа" style="rounded=1;whiteSpace=wrap;html=1;fillColor=#d5e8d4;strokeColor=#82b366;" vertex="1" parent="emb4uLtKr96zzY6ofPnc-8">
          <mxGeometry x="620" y="45.63" width="120" height="60" as="geometry" />
        </mxCell>
        <mxCell id="emb4uLtKr96zzY6ofPnc-14" value="Данные для заказа опубликованы в логах" style="rounded=1;whiteSpace=wrap;html=1;fillColor=#f8cecc;strokeColor=#b85450;" vertex="1" parent="emb4uLtKr96zzY6ofPnc-8">
          <mxGeometry x="790" y="45.63" width="120" height="60" as="geometry" />
        </mxCell>
        <mxCell id="emb4uLtKr96zzY6ofPnc-15" style="edgeStyle=orthogonalEdgeStyle;rounded=0;orthogonalLoop=1;jettySize=auto;html=1;exitX=1;exitY=0.5;exitDx=0;exitDy=0;" edge="1" parent="emb4uLtKr96zzY6ofPnc-8" source="emb4uLtKr96zzY6ofPnc-10" target="emb4uLtKr96zzY6ofPnc-11">
          <mxGeometry relative="1" as="geometry" />
        </mxCell>
        <mxCell id="emb4uLtKr96zzY6ofPnc-16" style="edgeStyle=orthogonalEdgeStyle;rounded=0;orthogonalLoop=1;jettySize=auto;html=1;exitX=1;exitY=0.5;exitDx=0;exitDy=0;" edge="1" parent="emb4uLtKr96zzY6ofPnc-8" source="emb4uLtKr96zzY6ofPnc-11" target="emb4uLtKr96zzY6ofPnc-12">
          <mxGeometry relative="1" as="geometry" />
        </mxCell>
        <mxCell id="emb4uLtKr96zzY6ofPnc-17" style="edgeStyle=orthogonalEdgeStyle;rounded=0;orthogonalLoop=1;jettySize=auto;html=1;exitX=1;exitY=0.5;exitDx=0;exitDy=0;entryX=0;entryY=0.5;entryDx=0;entryDy=0;" edge="1" parent="emb4uLtKr96zzY6ofPnc-8" source="emb4uLtKr96zzY6ofPnc-12" target="emb4uLtKr96zzY6ofPnc-13">
          <mxGeometry relative="1" as="geometry" />
        </mxCell>
        <mxCell id="emb4uLtKr96zzY6ofPnc-18" style="edgeStyle=orthogonalEdgeStyle;rounded=0;orthogonalLoop=1;jettySize=auto;html=1;exitX=1;exitY=0.5;exitDx=0;exitDy=0;entryX=0;entryY=0.5;entryDx=0;entryDy=0;" edge="1" parent="emb4uLtKr96zzY6ofPnc-8" source="emb4uLtKr96zzY6ofPnc-13" target="emb4uLtKr96zzY6ofPnc-14">
          <mxGeometry relative="1" as="geometry" />
        </mxCell>
        <mxCell id="emb4uLtKr96zzY6ofPnc-19" value="Результаты работы модулей опубликованы" style="rounded=1;whiteSpace=wrap;html=1;fillColor=#f8cecc;strokeColor=#b85450;" vertex="1" parent="emb4uLtKr96zzY6ofPnc-8">
          <mxGeometry x="1470" y="45.629999999999995" width="120" height="60" as="geometry" />
        </mxCell>
        <mxCell id="emb4uLtKr96zzY6ofPnc-20" value="Вернуть результат на сайт" style="rounded=1;whiteSpace=wrap;html=1;fillColor=#d5e8d4;strokeColor=#82b366;" vertex="1" parent="emb4uLtKr96zzY6ofPnc-8">
          <mxGeometry x="1640" y="45.629999999999995" width="120" height="60" as="geometry" />
        </mxCell>
        <mxCell id="emb4uLtKr96zzY6ofPnc-21" value="Пользователь получил ответ" style="rounded=1;whiteSpace=wrap;html=1;fillColor=#f8cecc;strokeColor=#b85450;" vertex="1" parent="emb4uLtKr96zzY6ofPnc-8">
          <mxGeometry x="1810" y="45.629999999999995" width="120" height="60" as="geometry" />
        </mxCell>
        <mxCell id="emb4uLtKr96zzY6ofPnc-22" style="edgeStyle=orthogonalEdgeStyle;rounded=0;orthogonalLoop=1;jettySize=auto;html=1;exitX=1;exitY=0.5;exitDx=0;exitDy=0;" edge="1" parent="emb4uLtKr96zzY6ofPnc-8" source="emb4uLtKr96zzY6ofPnc-19" target="emb4uLtKr96zzY6ofPnc-20">
          <mxGeometry relative="1" as="geometry" />
        </mxCell>
        <mxCell id="emb4uLtKr96zzY6ofPnc-23" style="edgeStyle=orthogonalEdgeStyle;rounded=0;orthogonalLoop=1;jettySize=auto;html=1;exitX=1;exitY=0.5;exitDx=0;exitDy=0;" edge="1" parent="emb4uLtKr96zzY6ofPnc-8" source="emb4uLtKr96zzY6ofPnc-20" target="emb4uLtKr96zzY6ofPnc-21">
          <mxGeometry relative="1" as="geometry" />
        </mxCell>
        <mxCell id="emb4uLtKr96zzY6ofPnc-24" value="" style="swimlane;html=1;startSize=20;fontStyle=0;collapsible=0;horizontal=0;swimlaneLine=1;swimlaneFillColor=#ffffff;strokeWidth=2;" vertex="1" parent="1">
          <mxGeometry x="-690" y="740" width="1950" height="180" as="geometry" />
        </mxCell>
        <mxCell id="emb4uLtKr96zzY6ofPnc-25" value="Продукты" style="text;html=1;strokeColor=none;fillColor=none;align=center;verticalAlign=middle;whiteSpace=wrap;rounded=0;rotation=-90;" vertex="1" parent="emb4uLtKr96zzY6ofPnc-24">
          <mxGeometry x="-52.5" y="70" width="120" height="20" as="geometry" />
        </mxCell>
        <mxCell id="emb4uLtKr96zzY6ofPnc-26" value="Зарезервировать товар" style="rounded=1;whiteSpace=wrap;html=1;fillColor=#d5e8d4;strokeColor=#82b366;" vertex="1" parent="emb4uLtKr96zzY6ofPnc-24">
          <mxGeometry x="930" y="60" width="120" height="60" as="geometry" />
        </mxCell>
        <mxCell id="emb4uLtKr96zzY6ofPnc-27" value="" style="verticalLabelPosition=bottom;verticalAlign=top;html=1;shape=mxgraph.flowchart.or;" vertex="1" parent="emb4uLtKr96zzY6ofPnc-24">
          <mxGeometry x="1087" y="73" width="34" height="34" as="geometry" />
        </mxCell>
        <mxCell id="emb4uLtKr96zzY6ofPnc-28" style="edgeStyle=orthogonalEdgeStyle;rounded=0;orthogonalLoop=1;jettySize=auto;html=1;exitX=1;exitY=0.5;exitDx=0;exitDy=0;entryX=0;entryY=0.5;entryDx=0;entryDy=0;entryPerimeter=0;" edge="1" parent="emb4uLtKr96zzY6ofPnc-24" source="emb4uLtKr96zzY6ofPnc-26" target="emb4uLtKr96zzY6ofPnc-27">
          <mxGeometry relative="1" as="geometry" />
        </mxCell>
        <mxCell id="emb4uLtKr96zzY6ofPnc-29" value="Товар успешно зарезервирован" style="rounded=1;whiteSpace=wrap;html=1;fillColor=#f8cecc;strokeColor=#b85450;" vertex="1" parent="emb4uLtKr96zzY6ofPnc-24">
          <mxGeometry x="1130" y="10" width="120" height="60" as="geometry" />
        </mxCell>
        <mxCell id="emb4uLtKr96zzY6ofPnc-30" style="edgeStyle=orthogonalEdgeStyle;rounded=0;orthogonalLoop=1;jettySize=auto;html=1;exitX=0.5;exitY=0;exitDx=0;exitDy=0;exitPerimeter=0;entryX=0;entryY=0.5;entryDx=0;entryDy=0;" edge="1" parent="emb4uLtKr96zzY6ofPnc-24" source="emb4uLtKr96zzY6ofPnc-27" target="emb4uLtKr96zzY6ofPnc-29">
          <mxGeometry relative="1" as="geometry" />
        </mxCell>
        <mxCell id="emb4uLtKr96zzY6ofPnc-31" value="Ошибка при резервировании" style="rounded=1;whiteSpace=wrap;html=1;fillColor=#f8cecc;strokeColor=#b85450;" vertex="1" parent="emb4uLtKr96zzY6ofPnc-24">
          <mxGeometry x="1130" y="110" width="120" height="60" as="geometry" />
        </mxCell>
        <mxCell id="emb4uLtKr96zzY6ofPnc-32" style="edgeStyle=orthogonalEdgeStyle;rounded=0;orthogonalLoop=1;jettySize=auto;html=1;exitX=0.5;exitY=1;exitDx=0;exitDy=0;exitPerimeter=0;entryX=0;entryY=0.5;entryDx=0;entryDy=0;" edge="1" parent="emb4uLtKr96zzY6ofPnc-24" source="emb4uLtKr96zzY6ofPnc-27" target="emb4uLtKr96zzY6ofPnc-31">
          <mxGeometry relative="1" as="geometry" />
        </mxCell>
        <mxCell id="emb4uLtKr96zzY6ofPnc-33" value="Опубликовать результат" style="rounded=1;whiteSpace=wrap;html=1;fillColor=#d5e8d4;strokeColor=#82b366;" vertex="1" parent="emb4uLtKr96zzY6ofPnc-24">
          <mxGeometry x="1310" y="60" width="120" height="60" as="geometry" />
        </mxCell>
        <mxCell id="emb4uLtKr96zzY6ofPnc-34" style="edgeStyle=orthogonalEdgeStyle;rounded=0;orthogonalLoop=1;jettySize=auto;html=1;exitX=1;exitY=0.5;exitDx=0;exitDy=0;entryX=0;entryY=0.5;entryDx=0;entryDy=0;" edge="1" parent="emb4uLtKr96zzY6ofPnc-24" source="emb4uLtKr96zzY6ofPnc-29" target="emb4uLtKr96zzY6ofPnc-33">
          <mxGeometry relative="1" as="geometry" />
        </mxCell>
        <mxCell id="emb4uLtKr96zzY6ofPnc-35" style="edgeStyle=orthogonalEdgeStyle;rounded=0;orthogonalLoop=1;jettySize=auto;html=1;exitX=1;exitY=0.5;exitDx=0;exitDy=0;entryX=0;entryY=0.5;entryDx=0;entryDy=0;" edge="1" parent="emb4uLtKr96zzY6ofPnc-24" source="emb4uLtKr96zzY6ofPnc-31" target="emb4uLtKr96zzY6ofPnc-33">
          <mxGeometry relative="1" as="geometry" />
        </mxCell>
        <mxCell id="emb4uLtKr96zzY6ofPnc-36" value="Монолит" style="rounded=0;whiteSpace=wrap;html=1;shadow=0;align=right;verticalAlign=bottom;fillColor=#f5f5f5;strokeColor=#666666;fontColor=#333333;" vertex="1" parent="1">
          <mxGeometry x="40" y="220" width="240" height="390" as="geometry" />
        </mxCell>
        <mxCell id="emb4uLtKr96zzY6ofPnc-37" value="Создание &lt;br&gt;заказа" style="edgeStyle=orthogonalEdgeStyle;rounded=0;orthogonalLoop=1;jettySize=auto;html=1;exitX=1;exitY=0.25;exitDx=0;exitDy=0;entryX=0;entryY=0.25;entryDx=0;entryDy=0;" edge="1" parent="1" source="emb4uLtKr96zzY6ofPnc-39" target="emb4uLtKr96zzY6ofPnc-47">
          <mxGeometry relative="1" as="geometry" />
        </mxCell>
        <mxCell id="emb4uLtKr96zzY6ofPnc-38" value="Регистрация" style="edgeStyle=orthogonalEdgeStyle;rounded=0;orthogonalLoop=1;jettySize=auto;html=1;exitX=0.75;exitY=1;exitDx=0;exitDy=0;entryX=0;entryY=0.25;entryDx=0;entryDy=0;" edge="1" parent="1" source="emb4uLtKr96zzY6ofPnc-39" target="emb4uLtKr96zzY6ofPnc-50">
          <mxGeometry relative="1" as="geometry" />
        </mxCell>
        <mxCell id="emb4uLtKr96zzY6ofPnc-39" value="Сайт" style="rounded=1;whiteSpace=wrap;html=1;" vertex="1" parent="1">
          <mxGeometry x="-620" y="390" width="180" height="60" as="geometry" />
        </mxCell>
        <mxCell id="emb4uLtKr96zzY6ofPnc-40" style="edgeStyle=orthogonalEdgeStyle;rounded=0;orthogonalLoop=1;jettySize=auto;html=1;exitX=0;exitY=0.5;exitDx=0;exitDy=0;entryX=0.5;entryY=0;entryDx=0;entryDy=0;" edge="1" parent="1" source="emb4uLtKr96zzY6ofPnc-43" target="emb4uLtKr96zzY6ofPnc-39">
          <mxGeometry relative="1" as="geometry" />
        </mxCell>
        <mxCell id="emb4uLtKr96zzY6ofPnc-41" value="Информация о наличии" style="edgeLabel;html=1;align=center;verticalAlign=middle;resizable=0;points=[];" vertex="1" connectable="0" parent="emb4uLtKr96zzY6ofPnc-40">
          <mxGeometry x="-0.0864" relative="1" as="geometry">
            <mxPoint as="offset" />
          </mxGeometry>
        </mxCell>
        <mxCell id="emb4uLtKr96zzY6ofPnc-42" value="Подтверждение &lt;br&gt;или ошибка" style="edgeStyle=orthogonalEdgeStyle;rounded=0;orthogonalLoop=1;jettySize=auto;html=1;exitX=0.25;exitY=1;exitDx=0;exitDy=0;entryX=0.75;entryY=1;entryDx=0;entryDy=0;" edge="1" parent="1" source="emb4uLtKr96zzY6ofPnc-43" target="emb4uLtKr96zzY6ofPnc-58">
          <mxGeometry x="-0.4343" relative="1" as="geometry">
            <mxPoint as="offset" />
          </mxGeometry>
        </mxCell>
        <mxCell id="emb4uLtKr96zzY6ofPnc-43" value="Продукты" style="rounded=1;whiteSpace=wrap;html=1;" vertex="1" parent="1">
          <mxGeometry x="60" y="240" width="180" height="60" as="geometry" />
        </mxCell>
        <mxCell id="emb4uLtKr96zzY6ofPnc-44" value="Инфо о &lt;br&gt;заказах" style="edgeStyle=orthogonalEdgeStyle;rounded=0;orthogonalLoop=1;jettySize=auto;html=1;exitX=0;exitY=0.75;exitDx=0;exitDy=0;entryX=1;entryY=0.75;entryDx=0;entryDy=0;" edge="1" parent="1" source="emb4uLtKr96zzY6ofPnc-47" target="emb4uLtKr96zzY6ofPnc-39">
          <mxGeometry relative="1" as="geometry" />
        </mxCell>
        <mxCell id="emb4uLtKr96zzY6ofPnc-45" value="Резервирование &lt;br&gt;и списние" style="edgeStyle=orthogonalEdgeStyle;rounded=0;orthogonalLoop=1;jettySize=auto;html=1;exitX=0.5;exitY=1;exitDx=0;exitDy=0;entryX=0.75;entryY=1;entryDx=0;entryDy=0;" edge="1" parent="1" source="emb4uLtKr96zzY6ofPnc-58" target="emb4uLtKr96zzY6ofPnc-43">
          <mxGeometry x="0.5556" relative="1" as="geometry">
            <mxPoint as="offset" />
          </mxGeometry>
        </mxCell>
        <mxCell id="emb4uLtKr96zzY6ofPnc-46" value="Публикация&lt;br&gt;нового заказа" style="edgeStyle=orthogonalEdgeStyle;rounded=0;orthogonalLoop=1;jettySize=auto;html=1;exitX=1;exitY=0.75;exitDx=0;exitDy=0;entryX=0.311;entryY=0.033;entryDx=0;entryDy=0;entryPerimeter=0;" edge="1" parent="1" source="emb4uLtKr96zzY6ofPnc-47" target="emb4uLtKr96zzY6ofPnc-58">
          <mxGeometry relative="1" as="geometry" />
        </mxCell>
        <mxCell id="emb4uLtKr96zzY6ofPnc-47" value="Заказ" style="rounded=1;whiteSpace=wrap;html=1;fillColor=#fff2cc;strokeColor=#d6b656;" vertex="1" parent="1">
          <mxGeometry x="-360" y="385" width="180" height="60" as="geometry" />
        </mxCell>
        <mxCell id="emb4uLtKr96zzY6ofPnc-48" value="Авторизация" style="edgeStyle=orthogonalEdgeStyle;rounded=0;orthogonalLoop=1;jettySize=auto;html=1;exitX=0;exitY=0.5;exitDx=0;exitDy=0;" edge="1" parent="1" source="emb4uLtKr96zzY6ofPnc-50" target="emb4uLtKr96zzY6ofPnc-39">
          <mxGeometry relative="1" as="geometry" />
        </mxCell>
        <mxCell id="emb4uLtKr96zzY6ofPnc-49" value="Привязка заказа&lt;br&gt;к пользователю" style="edgeStyle=orthogonalEdgeStyle;rounded=0;orthogonalLoop=1;jettySize=auto;html=1;exitX=0.5;exitY=0;exitDx=0;exitDy=0;entryX=0.5;entryY=1;entryDx=0;entryDy=0;" edge="1" parent="1" source="emb4uLtKr96zzY6ofPnc-50" target="emb4uLtKr96zzY6ofPnc-47">
          <mxGeometry relative="1" as="geometry" />
        </mxCell>
        <mxCell id="emb4uLtKr96zzY6ofPnc-50" value="Клиенты" style="rounded=1;whiteSpace=wrap;html=1;" vertex="1" parent="1">
          <mxGeometry x="70" y="525" width="180" height="60" as="geometry" />
        </mxCell>
        <mxCell id="emb4uLtKr96zzY6ofPnc-51" value="Время и дата" style="edgeStyle=orthogonalEdgeStyle;rounded=0;orthogonalLoop=1;jettySize=auto;html=1;exitX=0.5;exitY=1;exitDx=0;exitDy=0;entryX=1;entryY=0;entryDx=0;entryDy=0;" edge="1" parent="1" source="emb4uLtKr96zzY6ofPnc-52" target="emb4uLtKr96zzY6ofPnc-58">
          <mxGeometry x="0.1111" y="-40" relative="1" as="geometry">
            <mxPoint as="offset" />
          </mxGeometry>
        </mxCell>
        <mxCell id="emb4uLtKr96zzY6ofPnc-52" value="Системы доставки" style="rounded=1;whiteSpace=wrap;html=1;" vertex="1" parent="1">
          <mxGeometry x="-155" y="280" width="180" height="60" as="geometry" />
        </mxCell>
        <mxCell id="emb4uLtKr96zzY6ofPnc-53" value="Поступление продукции" style="edgeStyle=orthogonalEdgeStyle;rounded=0;orthogonalLoop=1;jettySize=auto;html=1;exitX=0.5;exitY=1;exitDx=0;exitDy=0;" edge="1" parent="1" source="emb4uLtKr96zzY6ofPnc-54" target="emb4uLtKr96zzY6ofPnc-43">
          <mxGeometry relative="1" as="geometry" />
        </mxCell>
        <mxCell id="emb4uLtKr96zzY6ofPnc-54" value="Склад" style="rounded=1;whiteSpace=wrap;html=1;" vertex="1" parent="1">
          <mxGeometry x="60" y="110" width="180" height="60" as="geometry" />
        </mxCell>
        <mxCell id="emb4uLtKr96zzY6ofPnc-55" style="edgeStyle=orthogonalEdgeStyle;rounded=0;orthogonalLoop=1;jettySize=auto;html=1;exitX=0.622;exitY=0;exitDx=0;exitDy=0;entryX=1;entryY=0.25;entryDx=0;entryDy=0;exitPerimeter=0;" edge="1" parent="1" source="emb4uLtKr96zzY6ofPnc-58" target="emb4uLtKr96zzY6ofPnc-47">
          <mxGeometry relative="1" as="geometry">
            <Array as="points">
              <mxPoint x="-80" y="400" />
            </Array>
          </mxGeometry>
        </mxCell>
        <mxCell id="emb4uLtKr96zzY6ofPnc-56" value="Резлуьтат &lt;br&gt;создания" style="edgeLabel;html=1;align=center;verticalAlign=middle;resizable=0;points=[];" vertex="1" connectable="0" parent="emb4uLtKr96zzY6ofPnc-55">
          <mxGeometry x="-0.4228" y="-1" relative="1" as="geometry">
            <mxPoint x="-24" y="1" as="offset" />
          </mxGeometry>
        </mxCell>
        <mxCell id="emb4uLtKr96zzY6ofPnc-57" value="Расчет" style="edgeStyle=orthogonalEdgeStyle;rounded=0;orthogonalLoop=1;jettySize=auto;html=1;exitX=1;exitY=1;exitDx=0;exitDy=0;entryX=0.583;entryY=1;entryDx=0;entryDy=0;entryPerimeter=0;" edge="1" parent="1" source="emb4uLtKr96zzY6ofPnc-58" target="emb4uLtKr96zzY6ofPnc-52">
          <mxGeometry x="-0.336" y="-20" relative="1" as="geometry">
            <mxPoint as="offset" />
          </mxGeometry>
        </mxCell>
        <mxCell id="emb4uLtKr96zzY6ofPnc-58" value="Kafka" style="rounded=0;whiteSpace=wrap;html=1;direction=west;rotation=90;fillColor=#f5f5f5;strokeColor=#666666;fontColor=#333333;" vertex="1" parent="1">
          <mxGeometry x="-110" y="400" width="90" height="30" as="geometry" />
        </mxCell>
        <mxCell id="emb4uLtKr96zzY6ofPnc-59" style="edgeStyle=orthogonalEdgeStyle;rounded=0;orthogonalLoop=1;jettySize=auto;html=1;exitX=0.5;exitY=1;exitDx=0;exitDy=0;entryX=0;entryY=0.5;entryDx=0;entryDy=0;" edge="1" parent="1" source="emb4uLtKr96zzY6ofPnc-14" target="emb4uLtKr96zzY6ofPnc-3">
          <mxGeometry relative="1" as="geometry" />
        </mxCell>
        <mxCell id="emb4uLtKr96zzY6ofPnc-60" style="edgeStyle=orthogonalEdgeStyle;rounded=0;orthogonalLoop=1;jettySize=auto;html=1;exitX=1;exitY=0.5;exitDx=0;exitDy=0;entryX=0.5;entryY=1;entryDx=0;entryDy=0;" edge="1" parent="1" source="emb4uLtKr96zzY6ofPnc-5" target="emb4uLtKr96zzY6ofPnc-19">
          <mxGeometry relative="1" as="geometry" />
        </mxCell>
        <mxCell id="emb4uLtKr96zzY6ofPnc-61" style="edgeStyle=orthogonalEdgeStyle;rounded=0;orthogonalLoop=1;jettySize=auto;html=1;exitX=0.5;exitY=0;exitDx=0;exitDy=0;entryX=0;entryY=0.5;entryDx=0;entryDy=0;" edge="1" parent="1" source="emb4uLtKr96zzY6ofPnc-14" target="emb4uLtKr96zzY6ofPnc-26">
          <mxGeometry relative="1" as="geometry">
            <mxPoint x="160" y="910" as="sourcePoint" />
          </mxGeometry>
        </mxCell>
        <mxCell id="emb4uLtKr96zzY6ofPnc-62" style="edgeStyle=orthogonalEdgeStyle;rounded=0;orthogonalLoop=1;jettySize=auto;html=1;exitX=1;exitY=0.5;exitDx=0;exitDy=0;" edge="1" parent="1" source="emb4uLtKr96zzY6ofPnc-33" target="emb4uLtKr96zzY6ofPnc-19">
          <mxGeometry relative="1" as="geometry">
            <mxPoint x="830" y="880" as="targetPoint" />
          </mxGeometry>
        </mxCell>
      </root>
    </mxGraphModel>
  </diagram>
</mxfile>
